<svg
width="32"
height="32"
viewBox="0 0 32 32"
fill="none"
xmlns="http://www.w3.org/2000/svg"
>
<circle cx="16" cy="16" r="16" fill="#979DA7"></circle>
<path
d="M12.8031 15.995C12.8031 14.2288 14.2354 12.7966 16.0027 12.7966C17.77 12.7966 19.2031 14.2288 19.2031 15.995C19.2031 17.7613 17.77 19.1935 16.0027 19.1935C14.2354 19.1935 12.8031 17.7613 12.8031 15.995ZM11.073 15.995C11.073 18.7161 13.2801 20.9217 16.0027 20.9217C18.7254 20.9217 20.9324 18.7161 20.9324 15.995C20.9324 13.274 18.7254 11.0683 16.0027 11.0683C13.2801 11.0683 11.073 13.274 11.073 15.995ZM19.9755 10.8729C19.9754 11.1007 20.0429 11.3233 20.1694 11.5127C20.2959 11.7021 20.4758 11.8497 20.6863 11.9369C20.8967 12.0242 21.1284 12.0471 21.3519 12.0027C21.5754 11.9584 21.7807 11.8488 21.9419 11.6879C22.103 11.5269 22.2128 11.3218 22.2574 11.0985C22.3019 10.8752 22.2792 10.6436 22.1921 10.4332C22.105 10.2228 21.9574 10.0429 21.768 9.91634C21.5786 9.78976 21.3559 9.72214 21.128 9.72205H21.1276C20.8221 9.72219 20.5293 9.84348 20.3133 10.0593C20.0973 10.2751 19.9758 10.5677 19.9755 10.8729ZM12.1242 23.8048C11.1882 23.7622 10.6794 23.6064 10.3413 23.4748C9.89312 23.3004 9.57331 23.0927 9.23707 22.7571C8.90082 22.4215 8.69269 22.1022 8.51896 21.6542C8.38717 21.3165 8.23126 20.8079 8.18871 19.8725C8.14216 18.8611 8.13287 18.5573 8.13287 15.9951C8.13287 13.4329 8.14293 13.1299 8.18871 12.1177C8.23133 11.1823 8.38839 10.6747 8.51896 10.336C8.69346 9.888 8.90128 9.56838 9.23707 9.23234C9.57285 8.8963 9.89235 8.68829 10.3413 8.51466C10.6793 8.38295 11.1882 8.22713 12.1242 8.18461C13.1361 8.13809 13.4401 8.12881 16.0027 8.12881C18.5653 8.12881 18.8696 8.13886 19.8824 8.18461C20.8184 8.22721 21.3263 8.38418 21.6653 8.51466C22.1135 8.68829 22.4333 8.89676 22.7695 9.23234C23.1058 9.56792 23.3132 9.888 23.4876 10.336C23.6194 10.6737 23.7754 11.1823 23.8179 12.1177C23.8644 13.1299 23.8737 13.4329 23.8737 15.9951C23.8737 18.5573 23.8644 18.8603 23.8179 19.8725C23.7753 20.8079 23.6186 21.3164 23.4876 21.6542C23.3132 22.1022 23.1053 22.4218 22.7695 22.7571C22.4338 23.0924 22.1135 23.3004 21.6653 23.4748C21.3273 23.6065 20.8184 23.7623 19.8824 23.8048C18.8705 23.8513 18.5665 23.8606 16.0027 23.8606C13.439 23.8606 13.1358 23.8513 12.1242 23.8048ZM12.0447 6.4585C11.0227 6.50501 10.3243 6.66697 9.7144 6.90415C9.08277 7.14908 8.54807 7.47768 8.01375 8.01083C7.47943 8.54398 7.15148 9.07921 6.9064 9.71046C6.66908 10.3204 6.50703 11.0179 6.46048 12.0393C6.41317 13.0624 6.40234 13.3894 6.40234 15.995C6.40234 18.6006 6.41317 18.9277 6.46048 19.9507C6.50703 20.9722 6.66908 21.6697 6.9064 22.2796C7.15148 22.9104 7.47951 23.4463 8.01375 23.9792C8.54799 24.5121 9.08277 24.8403 9.7144 25.0859C10.3254 25.3231 11.0227 25.485 12.0447 25.5315C13.0688 25.5781 13.3956 25.5896 16.0027 25.5896C18.6099 25.5896 18.9371 25.5788 19.9608 25.5315C20.9829 25.485 21.6808 25.3231 22.2911 25.0859C22.9223 24.8403 23.4574 24.5124 23.9917 23.9792C24.526 23.4461 24.8533 22.9104 25.0991 22.2796C25.3364 21.6697 25.4992 20.9721 25.545 19.9507C25.5915 18.9269 25.6023 18.6006 25.6023 15.995C25.6023 13.3894 25.5915 13.0624 25.545 12.0393C25.4984 11.0179 25.3364 10.32 25.0991 9.71046C24.8533 9.07959 24.5252 8.54483 23.9917 8.01083C23.4582 7.47683 22.9223 7.14908 22.2918 6.90415C21.6808 6.66697 20.9828 6.50424 19.9615 6.4585C18.9379 6.41198 18.6107 6.40039 16.0035 6.40039C13.3963 6.40039 13.0688 6.41121 12.0447 6.4585Z"
fill="white"
></path>
</svg>