<svg
    width="32"
    height="32"
    viewBox="0 0 32 32"
    fill="none"
    xmlns="http://www.w3.org/2000/svg"
>
    <circle cx="16" cy="16" r="16" fill="#979DA7"></circle>
    <path
    d="M22.9395 7.5752H9.05106C7.08533 7.5752 5.48438 9.11153 5.48438 10.9835V19.2333C5.48438 21.1117 7.09208 22.6416 9.05106 22.6416H13.9552L14.7996 24.0359L15.6305 25.4109C15.7791 25.6626 16.1574 25.6626 16.3128 25.4109L17.1436 24.0359L17.988 22.6416H22.9463C24.912 22.6416 26.5129 21.1053 26.5129 19.2333V10.99C26.5129 9.11153 24.9052 7.5752 22.9395 7.5752Z"
    fill="white"
    ></path>
    <path
    d="M17.1359 13.3711C16.0236 13.3711 15.1211 14.2596 15.1211 15.3579C15.1211 16.4563 16.0236 17.3448 17.1359 17.3448C18.2483 17.3448 19.1507 16.4563 19.1507 15.3579C19.1507 14.2596 18.2553 13.3711 17.1359 13.3711ZM17.1359 16.3094C16.6042 16.3094 16.1705 15.8826 16.1705 15.3579C16.1705 14.8332 16.6042 14.4065 17.1359 14.4065C17.6676 14.4065 18.1014 14.8332 18.1014 15.3579C18.1014 15.8826 17.6746 16.3094 17.1359 16.3094Z"
    fill="#979DA7"
    ></path>
    <path
    d="M10.7659 13.3719C10.3321 13.3719 9.92635 13.5398 9.61153 13.8267V12.1826H8.49219V17.2547H9.61153V16.8979C9.92635 17.1777 10.3251 17.3526 10.7659 17.3526C11.7663 17.3526 12.5778 16.4641 12.5778 15.3658C12.5778 14.2674 11.7733 13.3719 10.7659 13.3719ZM10.542 16.3522C10.1292 16.3522 9.77244 16.1073 9.61853 15.7505C9.56956 15.6316 9.53458 15.4987 9.53458 15.3588C9.53458 15.2189 9.56256 15.0859 9.61853 14.967C9.77244 14.6102 10.1292 14.3653 10.542 14.3653C11.1017 14.3653 11.5494 14.8061 11.5494 15.3588C11.5494 15.9114 11.1017 16.3522 10.542 16.3522Z"
    fill="#979DA7"
    ></path>
    <path
    d="M22.6396 13.4559V13.7707C22.3248 13.5258 21.933 13.3789 21.5133 13.3789C20.4849 13.3789 19.6523 14.2394 19.6523 15.2958C19.6523 16.3522 20.4849 17.2127 21.5133 17.2127C21.94 17.2127 22.3318 17.0658 22.6396 16.8209V17.3526C22.6396 17.3526 22.5277 17.8773 21.7441 17.8773V18.8637C21.7441 18.8637 22.5906 18.9616 23.3462 18.2061C23.3462 18.2061 23.696 17.8353 23.7729 17.3456V13.4559H22.6396ZM21.7231 16.2682C21.1565 16.2682 20.7017 15.8275 20.7017 15.2888C20.7017 14.7501 21.1635 14.3094 21.7231 14.3094C22.1219 14.3094 22.4717 14.5332 22.6396 14.855C22.7096 14.988 22.7445 15.1349 22.7445 15.2888C22.7445 15.4427 22.7026 15.5966 22.6396 15.7225C22.4717 16.0513 22.1219 16.2682 21.7231 16.2682Z"
    fill="#979DA7"
    ></path>
    <path
    d="M12.7031 12.085V13.0994C12.7031 13.0994 13.2208 13.1694 13.3188 13.6731V17.255H14.4731V13.6731V13.6451C14.4031 13.1414 14.1023 12.7636 14.1023 12.7636C13.4447 11.9871 12.7031 12.085 12.7031 12.085Z"
    fill="#979DA7"
    ></path>
</svg>