<svg
width="32"
height="32"
viewBox="0 0 32 32"
fill="none"
xmlns="http://www.w3.org/2000/svg"
>
<circle cx="16" cy="16" r="16" fill="#979DA7"></circle>
<path
    fill-rule="evenodd"
    clip-rule="evenodd"
    d="M23.504 9.54373C24.3317 9.76727 24.9823 10.4195 25.2022 11.2463C25.6023 12.7468 25.6023 15.8794 25.6023 15.8794C25.6023 15.8794 25.6023 19.0121 25.2022 20.5125C24.9792 21.3424 24.3287 21.9946 23.504 22.2151C22.0073 22.6163 16.0023 22.6163 16.0023 22.6163C16.0023 22.6163 10.0004 22.6163 8.50072 22.2151C7.67298 21.9916 7.02239 21.3393 6.80247 20.5125C6.40234 19.0121 6.40234 15.8794 6.40234 15.8794C6.40234 15.8794 6.40234 12.7468 6.80247 11.2463C7.02544 10.4165 7.67603 9.76421 8.50072 9.54373C10.0004 9.14258 16.0023 9.14258 16.0023 9.14258C16.0023 9.14258 22.0073 9.14258 23.504 9.54373ZM19.072 15.8794L14.0842 18.7671V12.9918L19.072 15.8794Z"
    fill="white"
></path>
</svg>